<svg width="425" height="297" viewBox="0 0 425 297" fill="none" xmlns="http://www.w3.org/2000/svg">
<g clip-path="url(#clip0_106_331)">
<g filter="url(#filter0_f_106_331)" style="mix-blend-mode:screen">
<path d="M83.1395 188.869C165.133 -43.018 341.64 -153.115 385.914 -183.665L-178.493 -8.94086L-95.4765 486.783C25.9224 458.874 5.65773 407.996 83.1395 188.869Z" fill="url(#paint0_radial_106_331)" fill-opacity="0.3"/>
</g>
<circle cx="121.126" cy="40.9031" r="0.791728" transform="rotate(-180 121.126 40.9031)" fill="#4A3FFF"/>
<circle cx="146.459" cy="34.5711" r="0.791728" transform="rotate(-180 146.459 34.5711)" fill="#4A3FFF"/>
<circle cx="34.6004" cy="38.9968" r="0.791728" transform="rotate(-180 34.6004 38.9968)" fill="#4A3FFF"/>
<circle cx="21.774" cy="116.605" r="1.18743" transform="rotate(-180 21.774 116.605)" fill="#4A3FFF"/>
<circle cx="74.2213" cy="131.046" r="1.18743" transform="rotate(-180 74.2213 131.046)" fill="#4A3FFF"/>
<circle cx="94.0767" cy="37.0777" r="1.18743" transform="rotate(-180 94.0767 37.0777)" fill="#4A3FFF"/>
<circle cx="41.2984" cy="143.687" r="1.18743" transform="rotate(-180 41.2984 143.687)" fill="#4A3FFF"/>
<circle cx="67.9996" cy="121.07" r="1.18743" transform="rotate(-180 67.9996 121.07)" fill="#4A3FFF"/>
<circle cx="41.1539" cy="65.8043" r="1.18743" transform="rotate(-180 41.1539 65.8043)" fill="#4A3FFF"/>
<circle cx="18.5816" cy="50.0777" r="1.18743" transform="rotate(-180 18.5816 50.0777)" fill="#4A3FFF"/>
<circle cx="65.5767" cy="14.9097" r="1.18743" transform="rotate(-180 65.5767 14.9097)" fill="#4A3FFF"/>
<circle cx="188.284" cy="161.897" r="0.395701" transform="rotate(-180 188.284 161.897)" fill="#4A3FFF"/>
<circle cx="152.309" cy="143.928" r="0.395701" transform="rotate(-180 152.309 143.928)" fill="#4A3FFF"/>
<circle cx="191.276" cy="112.948" r="0.395701" transform="rotate(-180 191.276 112.948)" fill="#4A3FFF"/>
<circle cx="97.9114" cy="77.6819" r="0.395701" transform="rotate(-180 97.9114 77.6819)" fill="#4A3FFF"/>
<circle cx="184.844" cy="131.537" r="0.395701" transform="rotate(-180 184.844 131.537)" fill="#4A3FFF"/>
<circle cx="71.5989" cy="136.651" r="0.395701" transform="rotate(-180 71.5989 136.651)" fill="#4A3FFF"/>
<circle cx="59.7571" cy="28.6741" r="0.395701" transform="rotate(-180 59.7571 28.6741)" fill="#4A3FFF"/>
<circle cx="71.1595" cy="95.764" r="0.395701" transform="rotate(-180 71.1595 95.764)" fill="#4A3FFF"/>
<circle cx="194.618" cy="55.2835" r="0.395701" transform="rotate(-180 194.618 55.2835)" fill="#4A3FFF"/>
<circle cx="142.178" cy="172.405" r="0.395701" transform="rotate(-180 142.178 172.405)" fill="#4A3FFF"/>
<circle cx="138.518" cy="68.2093" r="0.395701" transform="rotate(-180 138.518 68.2093)" fill="#4A3FFF"/>
<circle cx="207.284" cy="83.7835" r="0.395701" transform="rotate(-180 207.284 83.7835)" fill="#4A3FFF"/>
<circle cx="23.6185" cy="86.9515" r="0.395701" transform="rotate(-180 23.6185 86.9515)" fill="#4A3FFF"/>
<circle cx="46.6302" cy="110.455" r="0.395701" transform="rotate(-180 46.6302 110.455)" fill="#4A3FFF"/>
<circle cx="173.974" cy="15.889" r="0.395701" transform="rotate(-180 173.974 15.889)" fill="#4A3FFF"/>
<circle cx="137.64" cy="114.694" r="0.395701" transform="rotate(-180 137.64 114.694)" fill="#4A3FFF"/>
<circle cx="53.1741" cy="39.4515" r="0.395701" transform="rotate(-180 53.1741 39.4515)" fill="#4A3FFF"/>
<circle cx="137.614" cy="60.4476" r="0.395701" transform="rotate(-180 137.614 60.4476)" fill="#4A3FFF"/>
<circle cx="149.586" cy="65.2171" r="0.395701" transform="rotate(-180 149.586 65.2171)" fill="#4A3FFF"/>
<circle cx="21.5071" cy="74.2835" r="0.395701" transform="rotate(-180 21.5071 74.2835)" fill="#4A3FFF"/>
<circle cx="125.471" cy="8.221" r="0.395701" transform="rotate(-180 125.471 8.221)" fill="#4A3FFF"/>
<circle cx="119.768" cy="35.4983" r="0.395701" transform="rotate(-180 119.768 35.4983)" fill="#4A3FFF"/>
<circle cx="18.3401" cy="157.674" r="0.395701" transform="rotate(-180 18.3401 157.674)" fill="#4A3FFF"/>
<circle cx="44.3938" cy="10.7288" r="0.395701" transform="rotate(-180 44.3938 10.7288)" fill="#4A3FFF"/>
<path d="M205.57 31.1401L204.884 29.9525L206.256 29.9525L205.57 31.1401Z" fill="#4A3FFF"/>
<circle cx="66.8958" cy="66.8968" r="0.395701" transform="rotate(-180 66.8958 66.8968)" fill="#4A3FFF"/>
<path d="M13.4588 27.9722L12.7731 26.7846L14.1444 26.7846L13.4588 27.9722Z" fill="#4A3FFF"/>
<path d="M14.2547 8.47998L14.0867 7.8562L13.4629 7.68825L14.0867 7.5203L14.2547 6.89652L14.4226 7.5203L15.0464 7.68825L14.4226 7.8562L14.2547 8.47998Z" fill="#4A3FFF"/>
<path d="M171.792 37.4722L171.624 36.8484L171 36.6804L171.624 36.5125L171.792 35.8887L171.96 36.5125L172.583 36.6804L171.96 36.8484L171.792 37.4722Z" fill="#4A3FFF"/>
<path d="M111.838 71.1753L111.67 70.5515L111.046 70.3836L111.67 70.2156L111.838 69.5918L112.006 70.2156L112.629 70.3836L112.006 70.5515L111.838 71.1753Z" fill="#4A3FFF"/>
<path d="M149.625 13.1948L149.457 12.571L148.833 12.4031L149.457 12.2351L149.625 11.6114L149.793 12.2351L150.417 12.4031L149.793 12.571L149.625 13.1948Z" fill="#6842FF" fill-opacity="0.8"/>
<path d="M138.673 127.8L138.505 127.177L137.881 127.009L138.505 126.841L138.673 126.217L138.841 126.841L139.464 127.009L138.841 127.177L138.673 127.8Z" fill="#4A3FFF"/>
<path d="M71.0652 49.9722L70.8973 49.3484L70.2735 49.1804L70.8973 49.0125L71.0652 48.3887L71.2332 49.0125L71.8569 49.1804L71.2332 49.3484L71.0652 49.9722Z" fill="#4A3FFF"/>
<circle cx="205.173" cy="59.5062" r="0.395701" transform="rotate(-180 205.173 59.5062)" fill="#4A3FFF"/>
<path d="M213.297 130.041C204.321 96.8444 176.118 23.583 135.111 -3.88719" stroke="url(#paint1_linear_106_331)" stroke-opacity="0.1" stroke-width="2.11111"/>
<path d="M77.1682 -7.27454C76.909 19.0986 58.1493 84.8278 -14.8157 136.759" stroke="url(#paint2_linear_106_331)" stroke-opacity="0.1" stroke-width="2.11111"/>
<mask id="mask0_106_331" style="mask-type:alpha" maskUnits="userSpaceOnUse" x="51" y="43" width="119" height="133">
<path d="M53.9307 84.2725C53.9256 81.6908 54.602 79.1531 55.8906 76.916C57.1775 74.6822 59.0292 72.8257 61.2607 71.5352L61.2617 71.5361L103.484 47.418C105.702 46.1514 108.212 45.4854 110.766 45.4854C113.319 45.4854 115.829 46.1513 118.047 47.418L118.049 47.4199L160.406 71.5371C162.637 72.8277 164.489 74.6828 165.775 76.916C167.064 79.1531 167.74 81.6908 167.735 84.2725V107.72C167.74 123.755 161.954 139.253 151.442 151.362C140.999 163.393 126.59 171.274 110.834 173.582C95.0817 171.272 80.6749 163.392 70.2324 151.365C59.7216 139.26 53.9331 123.767 53.9307 107.735V84.2725Z" fill="black" stroke="url(#paint3_linear_106_331)" stroke-width="4.41795"/>
</mask>
<g mask="url(#mask0_106_331)">
<path d="M42.1084 78.915C42.1023 75.8158 42.9091 72.7701 44.4473 70.0859C45.9853 67.4019 48.1995 65.1741 50.8652 63.627L100.223 35.333L100.23 35.3281C101.073 34.8405 101.956 34.4292 102.868 34.0947C110.983 42.3291 115.824 53.2853 116.438 64.8945C117.076 76.9446 113.113 88.7835 105.361 97.9922C97.6098 107.201 86.6552 113.084 74.7373 114.444C63.1812 115.764 51.5612 112.734 42.1084 105.962V78.915Z" fill="#4A3FFF" stroke="url(#paint4_linear_106_331)" stroke-width="4.41795"/>
<path d="M153.053 144.247C153.893 144.251 154.724 144.425 155.495 144.759C155.74 144.865 155.977 144.988 156.206 145.124C153.9 148.512 151.288 151.681 148.401 154.591C147.906 154.025 147.514 153.372 147.248 152.658C146.779 151.399 146.73 150.022 147.107 148.732C147.485 147.443 148.268 146.309 149.341 145.501C150.411 144.695 151.713 144.255 153.053 144.247Z" fill="white" stroke="url(#paint5_linear_106_331)" stroke-width="4.41795"/>
</g>
<foreignObject x="-30.3771" y="-38.8224" width="282.42" height="296.736"><div xmlns="http://www.w3.org/1999/xhtml" style="backdrop-filter:blur(41.05px);clip-path:url(#bgblur_1_106_331_clip_path);height:100%;width:100%"></div></foreignObject><path data-figma-bg-blur-radius="82.0987" d="M52.543 84.2754C52.5374 81.4496 53.277 78.6723 54.6875 76.2236C56.0974 73.776 58.1274 71.7429 60.5732 70.3301L102.796 46.2129C105.223 44.8265 107.97 44.0977 110.766 44.0977C113.561 44.0977 116.308 44.8265 118.735 46.2129L118.736 46.2139L161.093 70.3301C163.538 71.7429 165.569 73.7761 166.979 76.2236C168.389 78.6722 169.129 81.4496 169.123 84.2754V107.719C169.128 124.089 163.221 139.91 152.49 152.272C141.785 164.605 126.996 172.666 110.833 174.984C94.6742 172.664 79.8891 164.604 69.1846 152.275C58.4546 139.917 52.5455 124.101 52.543 107.735V84.2754Z" fill="black" fill-opacity="0.05" stroke="url(#paint6_linear_106_331)" stroke-width="1.64198"/>
<path d="M110.832 62.0195C111.944 62.0196 113.036 62.3074 114.003 62.8564L149.181 82.9707L149.182 82.9717C150.157 83.5277 150.969 84.3313 151.533 85.3018C152.098 86.2723 152.396 87.3753 152.397 88.498V108.156C152.397 119.829 148.182 131.109 140.528 139.923C132.895 148.713 122.353 154.459 110.831 156.114C99.3284 154.458 88.8019 148.725 81.1719 139.957C73.7604 131.44 69.5623 120.612 69.2812 109.348L69.2666 108.256V88.498L69.2803 88.0781C69.3458 87.1017 69.6359 86.151 70.1299 85.3018C70.6945 84.3313 71.506 83.5277 72.4814 82.9717L72.4824 82.9707L107.659 62.8564L107.66 62.8574C108.627 62.3081 109.72 62.0195 110.832 62.0195Z" fill="black" fill-opacity="0.4" stroke="url(#paint7_linear_106_331)" stroke-width="1.31358"/>
<g style="mix-blend-mode:plus-lighter">
<path fill-rule="evenodd" clip-rule="evenodd" d="M106.387 91.4675C105.971 91.822 105.763 91.9993 105.541 92.1482C105.032 92.4895 104.46 92.7264 103.858 92.8451C103.596 92.897 103.324 92.9187 102.779 92.9622C101.41 93.0714 100.725 93.126 100.154 93.3278C98.8333 93.7943 97.7943 94.8333 97.3278 96.1542C97.126 96.7252 97.0714 97.4098 96.9622 98.7788C96.9187 99.3237 96.897 99.5961 96.8451 99.8585C96.7264 100.46 96.4895 101.032 96.1482 101.541C95.9993 101.763 95.822 101.971 95.4675 102.387C94.5767 103.433 94.1313 103.955 93.8701 104.502C93.266 105.766 93.266 107.235 93.8701 108.499C94.1313 109.045 94.5767 109.568 95.4675 110.613C95.822 111.029 95.9993 111.237 96.1482 111.459C96.4895 111.969 96.7264 112.541 96.8451 113.142C96.897 113.405 96.9187 113.677 96.9622 114.222C97.0714 115.591 97.126 116.275 97.3278 116.847C97.7943 118.167 98.8333 119.206 100.154 119.673C100.725 119.875 101.41 119.929 102.779 120.039C103.324 120.082 103.596 120.104 103.858 120.156C104.46 120.274 105.032 120.511 105.541 120.853C105.763 121.001 105.971 121.179 106.387 121.533C107.433 122.424 107.955 122.869 108.502 123.131C109.766 123.735 111.235 123.735 112.499 123.131C113.045 122.869 113.568 122.424 114.613 121.533C115.029 121.179 115.237 121.001 115.459 120.853C115.969 120.511 116.541 120.274 117.142 120.156C117.405 120.104 117.677 120.082 118.222 120.039C119.591 119.929 120.275 119.875 120.847 119.673C122.167 119.206 123.206 118.167 123.673 116.847C123.875 116.275 123.929 115.591 124.039 114.222C124.082 113.677 124.104 113.405 124.156 113.142C124.274 112.541 124.511 111.969 124.853 111.459C125.001 111.237 125.179 111.029 125.533 110.613C126.424 109.568 126.869 109.045 127.131 108.499C127.735 107.235 127.735 105.766 127.131 104.502C126.869 103.955 126.424 103.433 125.533 102.387C125.179 101.971 125.001 101.763 124.853 101.541C124.511 101.032 124.274 100.46 124.156 99.8585C124.104 99.5961 124.082 99.3237 124.039 98.7788C123.929 97.4098 123.875 96.7252 123.673 96.1542C123.206 94.8333 122.167 93.7943 120.847 93.3278C120.275 93.126 119.591 93.0714 118.222 92.9622C117.677 92.9187 117.405 92.897 117.142 92.8451C116.541 92.7264 115.969 92.4895 115.459 92.1482C115.237 91.9993 115.029 91.822 114.613 91.4675C113.568 90.5767 113.045 90.1313 112.499 89.8701C111.235 89.266 109.766 89.266 108.502 89.8701C107.955 90.1313 107.433 90.5767 106.387 91.4675ZM117.045 99.9567C117.588 100.5 117.588 101.38 117.045 101.923L105.922 113.046C105.379 113.589 104.499 113.589 103.956 113.046C103.413 112.503 103.413 111.622 103.956 111.08L115.078 99.9567C115.622 99.4138 116.502 99.4138 117.045 99.9567ZM116.989 111.136C116.989 112.16 116.159 112.989 115.135 112.989C114.111 112.989 113.281 112.16 113.281 111.136C113.281 110.112 114.111 109.282 115.135 109.282C116.159 109.282 116.989 110.112 116.989 111.136ZM105.866 103.721C106.89 103.721 107.72 102.891 107.72 101.867C107.72 100.843 106.89 100.013 105.866 100.013C104.842 100.013 104.012 100.843 104.012 101.867C104.012 102.891 104.842 103.721 105.866 103.721Z" fill="url(#paint8_linear_106_331)"/>
</g>
</g>
<rect x="0.527778" y="283.417" width="282.889" height="220.611" rx="16.3611" transform="rotate(-90 0.527778 283.417)" stroke="url(#paint9_linear_106_331)" stroke-width="1.05556"/>
<path d="M312.934 96.06C312.607 96.06 312.347 95.9833 312.154 95.83C311.96 95.6767 311.85 95.4733 311.824 95.22H312.369C312.389 95.3367 312.447 95.4317 312.544 95.505C312.644 95.5783 312.775 95.615 312.939 95.615C313.095 95.615 313.215 95.5833 313.299 95.52C313.385 95.4533 313.429 95.3767 313.429 95.29C313.429 95.1633 313.377 95.0767 313.274 95.03C313.174 94.9833 313.025 94.9483 312.829 94.925C312.659 94.905 312.504 94.8667 312.364 94.81C312.227 94.75 312.119 94.67 312.039 94.57C311.959 94.4667 311.919 94.3383 311.919 94.185C311.919 93.9683 312.004 93.7933 312.174 93.66C312.344 93.5267 312.58 93.46 312.884 93.46C313.187 93.46 313.422 93.5283 313.589 93.665C313.755 93.8017 313.852 93.9883 313.879 94.225H313.369C313.355 94.125 313.304 94.0467 313.214 93.99C313.124 93.93 313.012 93.9 312.879 93.9C312.742 93.9 312.634 93.9267 312.554 93.98C312.474 94.03 312.434 94.0967 312.434 94.18C312.434 94.36 312.627 94.47 313.014 94.51C313.197 94.53 313.36 94.565 313.504 94.615C313.647 94.6617 313.76 94.7367 313.844 94.84C313.927 94.94 313.969 95.0817 313.969 95.265C313.972 95.415 313.929 95.55 313.839 95.67C313.752 95.79 313.63 95.885 313.474 95.955C313.32 96.025 313.14 96.06 312.934 96.06ZM316.262 93.14C316.145 93.14 316.047 93.1033 315.967 93.03C315.89 92.9533 315.852 92.86 315.852 92.75C315.852 92.64 315.89 92.5483 315.967 92.475C316.047 92.4017 316.145 92.365 316.262 92.365C316.382 92.365 316.48 92.4017 316.557 92.475C316.637 92.5483 316.677 92.64 316.677 92.75C316.677 92.86 316.637 92.9533 316.557 93.03C316.48 93.1033 316.382 93.14 316.262 93.14ZM315.267 96V95.54H316.047V94.145C316.047 94.035 315.993 93.98 315.887 93.98H315.337V93.52H315.982C316.188 93.52 316.338 93.5683 316.432 93.665C316.528 93.7583 316.577 93.9083 316.577 94.115V95.54H317.357V96H315.267ZM318.335 96V93.52H318.775L318.82 93.81H318.845C318.888 93.7067 318.955 93.6233 319.045 93.56C319.135 93.4933 319.241 93.46 319.365 93.46C319.485 93.46 319.59 93.49 319.68 93.55C319.77 93.61 319.836 93.6967 319.88 93.81H319.9C319.943 93.71 320.011 93.6267 320.105 93.56C320.198 93.4933 320.313 93.46 320.45 93.46C320.633 93.46 320.771 93.52 320.865 93.64C320.961 93.76 321.01 93.9283 321.01 94.145V96H320.5V94.25C320.5 94.15 320.478 94.0717 320.435 94.015C320.395 93.955 320.33 93.925 320.24 93.925C320.15 93.925 320.075 93.96 320.015 94.03C319.958 94.1 319.93 94.1983 319.93 94.325V96H319.415V94.25C319.415 94.15 319.395 94.0717 319.355 94.015C319.315 93.955 319.25 93.925 319.16 93.925C319.07 93.925 318.995 93.96 318.935 94.03C318.875 94.1 318.845 94.1983 318.845 94.325V96H318.335ZM322.888 96.06C322.588 96.06 322.359 95.9683 322.203 95.785C322.049 95.5983 321.973 95.3283 321.973 94.975V93.52H322.503V94.91C322.503 95.1133 322.546 95.2733 322.633 95.39C322.723 95.5033 322.859 95.56 323.043 95.56C323.226 95.56 323.379 95.4983 323.503 95.375C323.626 95.2517 323.688 95.0733 323.688 94.84V93.52H324.218V96H323.758L323.713 95.63H323.688C323.621 95.75 323.518 95.8517 323.378 95.935C323.238 96.0183 323.074 96.06 322.888 96.06ZM325.346 96V95.54H326.176V93.025C326.176 92.915 326.123 92.86 326.016 92.86H325.416V92.4H326.111C326.304 92.4 326.451 92.4517 326.551 92.555C326.654 92.655 326.706 92.8017 326.706 92.995V95.54H327.541V96H325.346ZM329.679 96.06C329.482 96.06 329.317 96.0267 329.184 95.96C329.051 95.89 328.951 95.7983 328.884 95.685C328.817 95.5683 328.784 95.4417 328.784 95.305C328.784 95.0617 328.872 94.8717 329.049 94.735C329.229 94.5983 329.482 94.53 329.809 94.53H330.449V94.475C330.449 94.1017 330.276 93.915 329.929 93.915C329.786 93.915 329.664 93.9467 329.564 94.01C329.467 94.07 329.402 94.1683 329.369 94.305H328.839C328.866 94.045 328.977 93.84 329.174 93.69C329.374 93.5367 329.626 93.46 329.929 93.46C330.296 93.46 330.562 93.55 330.729 93.73C330.896 93.91 330.979 94.1583 330.979 94.475V96H330.529L330.484 95.635H330.449C330.376 95.7517 330.284 95.8517 330.174 95.935C330.064 96.0183 329.899 96.06 329.679 96.06ZM329.779 95.615C329.996 95.615 330.157 95.55 330.264 95.42C330.374 95.2867 330.434 95.1183 330.444 94.915H329.864C329.674 94.915 329.539 94.9467 329.459 95.01C329.382 95.07 329.344 95.155 329.344 95.265C329.344 95.375 329.382 95.4617 329.459 95.525C329.539 95.585 329.646 95.615 329.779 95.615ZM333.572 96C333.329 96 333.135 95.9417 332.992 95.825C332.849 95.705 332.777 95.4933 332.777 95.19V93.97H332.152V93.52H332.522C332.692 93.52 332.792 93.4367 332.822 93.27L332.897 92.87H333.307V93.52H334.287V93.97H333.307V95.18C333.307 95.31 333.335 95.4017 333.392 95.455C333.452 95.505 333.554 95.53 333.697 95.53H334.277V96H333.572ZM336.65 93.14C336.533 93.14 336.435 93.1033 336.355 93.03C336.278 92.9533 336.24 92.86 336.24 92.75C336.24 92.64 336.278 92.5483 336.355 92.475C336.435 92.4017 336.533 92.365 336.65 92.365C336.77 92.365 336.868 92.4017 336.945 92.475C337.025 92.5483 337.065 92.64 337.065 92.75C337.065 92.86 337.025 92.9533 336.945 93.03C336.868 93.1033 336.77 93.14 336.65 93.14ZM335.655 96V95.54H336.435V94.145C336.435 94.035 336.382 93.98 336.275 93.98H335.725V93.52H336.37C336.577 93.52 336.727 93.5683 336.82 93.665C336.917 93.7583 336.965 93.9083 336.965 94.115V95.54H337.745V96H335.655ZM338.988 96V93.52H339.448L339.493 93.89H339.518C339.585 93.77 339.688 93.6683 339.828 93.585C339.968 93.5017 340.13 93.46 340.313 93.46C340.616 93.46 340.845 93.5517 340.998 93.735C341.151 93.9183 341.228 94.1883 341.228 94.545V96H340.698V94.61C340.698 94.4033 340.655 94.2433 340.568 94.13C340.481 94.0167 340.345 93.96 340.158 93.96C339.975 93.96 339.821 94.0217 339.698 94.145C339.578 94.2683 339.518 94.4467 339.518 94.68V96H338.988ZM343.441 95.285C343.288 95.285 343.146 95.26 343.016 95.21L342.891 95.36C342.851 95.41 342.839 95.4583 342.856 95.505C342.876 95.5483 342.921 95.57 342.991 95.57H343.646C343.936 95.57 344.169 95.6317 344.346 95.755C344.526 95.875 344.616 96.06 344.616 96.31C344.616 96.4667 344.576 96.6083 344.496 96.735C344.419 96.865 344.294 96.9683 344.121 97.045C343.951 97.1217 343.726 97.16 343.446 97.16C343.093 97.16 342.808 97.0933 342.591 96.96C342.378 96.83 342.271 96.6333 342.271 96.37C342.271 96.2767 342.293 96.19 342.336 96.11C342.383 96.0333 342.443 95.9633 342.516 95.9C342.426 95.8333 342.371 95.74 342.351 95.62C342.334 95.4967 342.371 95.3783 342.461 95.265L342.681 94.985C342.524 94.8183 342.446 94.6133 342.446 94.37C342.446 94.2067 342.484 94.0567 342.561 93.92C342.641 93.78 342.754 93.6683 342.901 93.585C343.051 93.5017 343.231 93.46 343.441 93.46C343.578 93.46 343.704 93.48 343.821 93.52H344.756V93.87L344.321 93.895V93.94C344.391 94.07 344.426 94.2133 344.426 94.37C344.426 94.5333 344.386 94.685 344.306 94.825C344.229 94.965 344.118 95.0767 343.971 95.16C343.824 95.2433 343.648 95.285 343.441 95.285ZM343.441 94.86C343.588 94.86 343.708 94.8167 343.801 94.73C343.898 94.6433 343.946 94.5233 343.946 94.37C343.946 94.2233 343.898 94.1067 343.801 94.02C343.708 93.9333 343.588 93.89 343.441 93.89C343.291 93.89 343.168 93.9333 343.071 94.02C342.978 94.1067 342.931 94.2233 342.931 94.37C342.931 94.5233 342.978 94.6433 343.071 94.73C343.168 94.8167 343.291 94.86 343.441 94.86ZM342.771 96.33C342.771 96.4633 342.834 96.5617 342.961 96.625C343.091 96.6883 343.253 96.72 343.446 96.72C343.653 96.72 343.816 96.685 343.936 96.615C344.056 96.545 344.116 96.4467 344.116 96.32C344.116 96.2133 344.073 96.1283 343.986 96.065C343.899 96.005 343.753 95.975 343.546 95.975H342.961C342.834 96.075 342.771 96.1933 342.771 96.33ZM346.894 96.03C346.771 96.03 346.666 95.99 346.579 95.91C346.492 95.8267 346.449 95.7267 346.449 95.61C346.449 95.4933 346.492 95.395 346.579 95.315C346.666 95.235 346.771 95.195 346.894 95.195C347.021 95.195 347.126 95.235 347.209 95.315C347.296 95.395 347.339 95.4933 347.339 95.61C347.339 95.7267 347.296 95.8267 347.209 95.91C347.126 95.99 347.021 96.03 346.894 96.03ZM350.292 96.03C350.169 96.03 350.064 95.99 349.977 95.91C349.891 95.8267 349.847 95.7267 349.847 95.61C349.847 95.4933 349.891 95.395 349.977 95.315C350.064 95.235 350.169 95.195 350.292 95.195C350.419 95.195 350.524 95.235 350.607 95.315C350.694 95.395 350.737 95.4933 350.737 95.61C350.737 95.7267 350.694 95.8267 350.607 95.91C350.524 95.99 350.419 96.03 350.292 96.03ZM353.69 96.03C353.567 96.03 353.462 95.99 353.375 95.91C353.289 95.8267 353.245 95.7267 353.245 95.61C353.245 95.4933 353.289 95.395 353.375 95.315C353.462 95.235 353.567 95.195 353.69 95.195C353.817 95.195 353.922 95.235 354.005 95.315C354.092 95.395 354.135 95.4933 354.135 95.61C354.135 95.7267 354.092 95.8267 354.005 95.91C353.922 95.99 353.817 96.03 353.69 96.03ZM357.088 96.03C356.965 96.03 356.86 95.99 356.773 95.91C356.687 95.8267 356.643 95.7267 356.643 95.61C356.643 95.4933 356.687 95.395 356.773 95.315C356.86 95.235 356.965 95.195 357.088 95.195C357.215 95.195 357.32 95.235 357.403 95.315C357.49 95.395 357.533 95.4933 357.533 95.61C357.533 95.7267 357.49 95.8267 357.403 95.91C357.32 95.99 357.215 96.03 357.088 96.03Z" fill="white" fill-opacity="0.6"/>
<path d="M307.954 199.06C307.724 199.06 307.517 199.007 307.334 198.9C307.154 198.793 307.012 198.643 306.909 198.45C306.805 198.253 306.754 198.023 306.754 197.76C306.754 197.497 306.805 197.268 306.909 197.075C307.015 196.882 307.159 196.732 307.339 196.625C307.519 196.515 307.724 196.46 307.954 196.46C308.27 196.46 308.525 196.54 308.719 196.7C308.915 196.857 309.04 197.073 309.094 197.35H308.539C308.505 197.23 308.437 197.135 308.334 197.065C308.234 196.995 308.105 196.96 307.949 196.96C307.835 196.96 307.727 196.99 307.624 197.05C307.524 197.11 307.442 197.2 307.379 197.32C307.319 197.437 307.289 197.583 307.289 197.76C307.289 197.933 307.319 198.08 307.379 198.2C307.442 198.32 307.524 198.412 307.624 198.475C307.727 198.535 307.835 198.565 307.949 198.565C308.109 198.565 308.237 198.53 308.334 198.46C308.43 198.39 308.499 198.293 308.539 198.17H309.094C309.027 198.443 308.897 198.66 308.704 198.82C308.51 198.98 308.26 199.06 307.954 199.06ZM310.162 200.1V196.52H310.622L310.662 196.9H310.692C310.758 196.777 310.858 196.673 310.992 196.59C311.128 196.503 311.29 196.46 311.477 196.46C311.67 196.46 311.847 196.51 312.007 196.61C312.167 196.707 312.293 196.852 312.387 197.045C312.483 197.235 312.532 197.473 312.532 197.76C312.532 198.043 312.482 198.282 312.382 198.475C312.285 198.668 312.153 198.815 311.987 198.915C311.82 199.012 311.633 199.06 311.427 199.06C311.243 199.06 311.09 199.023 310.967 198.95C310.843 198.877 310.752 198.793 310.692 198.7V200.1H310.162ZM311.337 198.555C311.523 198.555 311.678 198.488 311.802 198.355C311.928 198.222 311.992 198.022 311.992 197.755C311.992 197.488 311.928 197.29 311.802 197.16C311.678 197.03 311.523 196.965 311.337 196.965C311.147 196.965 310.988 197.032 310.862 197.165C310.738 197.295 310.677 197.493 310.677 197.76C310.677 198.023 310.738 198.222 310.862 198.355C310.988 198.488 311.147 198.555 311.337 198.555ZM314.495 199.06C314.195 199.06 313.966 198.968 313.81 198.785C313.656 198.598 313.58 198.328 313.58 197.975V196.52H314.11V197.91C314.11 198.113 314.153 198.273 314.24 198.39C314.33 198.503 314.466 198.56 314.65 198.56C314.833 198.56 314.986 198.498 315.11 198.375C315.233 198.252 315.295 198.073 315.295 197.84V196.52H315.825V199H315.365L315.32 198.63H315.295C315.228 198.75 315.125 198.852 314.985 198.935C314.845 199.018 314.681 199.06 314.495 199.06ZM320.651 197.475V197.025H322.371V197.475H320.651ZM327.152 200.1V196.52H327.612L327.652 196.9H327.682C327.749 196.777 327.849 196.673 327.982 196.59C328.119 196.503 328.28 196.46 328.467 196.46C328.66 196.46 328.837 196.51 328.997 196.61C329.157 196.707 329.284 196.852 329.377 197.045C329.474 197.235 329.522 197.473 329.522 197.76C329.522 198.043 329.472 198.282 329.372 198.475C329.275 198.668 329.144 198.815 328.977 198.915C328.81 199.012 328.624 199.06 328.417 199.06C328.234 199.06 328.08 199.023 327.957 198.95C327.834 198.877 327.742 198.793 327.682 198.7V200.1H327.152ZM328.327 198.555C328.514 198.555 328.669 198.488 328.792 198.355C328.919 198.222 328.982 198.022 328.982 197.755C328.982 197.488 328.919 197.29 328.792 197.16C328.669 197.03 328.514 196.965 328.327 196.965C328.137 196.965 327.979 197.032 327.852 197.165C327.729 197.295 327.667 197.493 327.667 197.76C327.667 198.023 327.729 198.222 327.852 198.355C327.979 198.488 328.137 198.555 328.327 198.555ZM331.48 199.06C331.283 199.06 331.118 199.027 330.985 198.96C330.852 198.89 330.752 198.798 330.685 198.685C330.618 198.568 330.585 198.442 330.585 198.305C330.585 198.062 330.673 197.872 330.85 197.735C331.03 197.598 331.283 197.53 331.61 197.53H332.25V197.475C332.25 197.102 332.077 196.915 331.73 196.915C331.587 196.915 331.465 196.947 331.365 197.01C331.268 197.07 331.203 197.168 331.17 197.305H330.64C330.667 197.045 330.778 196.84 330.975 196.69C331.175 196.537 331.427 196.46 331.73 196.46C332.097 196.46 332.363 196.55 332.53 196.73C332.697 196.91 332.78 197.158 332.78 197.475V199H332.33L332.285 198.635H332.25C332.177 198.752 332.085 198.852 331.975 198.935C331.865 199.018 331.7 199.06 331.48 199.06ZM331.58 198.615C331.797 198.615 331.958 198.55 332.065 198.42C332.175 198.287 332.235 198.118 332.245 197.915H331.665C331.475 197.915 331.34 197.947 331.26 198.01C331.183 198.07 331.145 198.155 331.145 198.265C331.145 198.375 331.183 198.462 331.26 198.525C331.34 198.585 331.447 198.615 331.58 198.615ZM333.988 199V198.54H334.593V197.145C334.593 197.035 334.54 196.98 334.433 196.98H334.038V196.52H334.633C334.77 196.52 334.881 196.56 334.968 196.64C335.055 196.717 335.098 196.825 335.098 196.965V197.025H335.123C335.16 196.838 335.238 196.698 335.358 196.605C335.481 196.508 335.66 196.46 335.893 196.46H336.278V197.02H335.738C335.541 197.02 335.39 197.088 335.283 197.225C335.176 197.362 335.123 197.525 335.123 197.715V198.54H335.893V199H333.988ZM338.521 199.06C338.194 199.06 337.934 198.983 337.741 198.83C337.548 198.677 337.438 198.473 337.411 198.22H337.956C337.976 198.337 338.034 198.432 338.131 198.505C338.231 198.578 338.363 198.615 338.526 198.615C338.683 198.615 338.803 198.583 338.886 198.52C338.973 198.453 339.016 198.377 339.016 198.29C339.016 198.163 338.964 198.077 338.861 198.03C338.761 197.983 338.613 197.948 338.416 197.925C338.246 197.905 338.091 197.867 337.951 197.81C337.814 197.75 337.706 197.67 337.626 197.57C337.546 197.467 337.506 197.338 337.506 197.185C337.506 196.968 337.591 196.793 337.761 196.66C337.931 196.527 338.168 196.46 338.471 196.46C338.774 196.46 339.009 196.528 339.176 196.665C339.343 196.802 339.439 196.988 339.466 197.225H338.956C338.943 197.125 338.891 197.047 338.801 196.99C338.711 196.93 338.599 196.9 338.466 196.9C338.329 196.9 338.221 196.927 338.141 196.98C338.061 197.03 338.021 197.097 338.021 197.18C338.021 197.36 338.214 197.47 338.601 197.51C338.784 197.53 338.948 197.565 339.091 197.615C339.234 197.662 339.348 197.737 339.431 197.84C339.514 197.94 339.556 198.082 339.556 198.265C339.559 198.415 339.516 198.55 339.426 198.67C339.339 198.79 339.218 198.885 339.061 198.955C338.908 199.025 338.728 199.06 338.521 199.06ZM341.929 199.06C341.689 199.06 341.477 199.007 341.294 198.9C341.111 198.79 340.967 198.638 340.864 198.445C340.761 198.252 340.709 198.027 340.709 197.77C340.709 197.51 340.759 197.282 340.859 197.085C340.962 196.888 341.106 196.735 341.289 196.625C341.476 196.515 341.691 196.46 341.934 196.46C342.174 196.46 342.381 196.515 342.554 196.625C342.727 196.732 342.861 196.875 342.954 197.055C343.051 197.235 343.099 197.433 343.099 197.65C343.099 197.683 343.099 197.72 343.099 197.76C343.099 197.797 343.097 197.838 343.094 197.885H341.229C341.246 198.115 341.321 198.29 341.454 198.41C341.587 198.527 341.744 198.585 341.924 198.585C342.081 198.585 342.204 198.553 342.294 198.49C342.387 198.423 342.456 198.333 342.499 198.22H343.034C342.974 198.457 342.849 198.657 342.659 198.82C342.469 198.98 342.226 199.06 341.929 199.06ZM341.929 196.92C341.766 196.92 341.621 196.97 341.494 197.07C341.367 197.167 341.286 197.303 341.249 197.48H342.569C342.556 197.313 342.491 197.178 342.374 197.075C342.257 196.972 342.109 196.92 341.929 196.92ZM348.715 199.06C348.388 199.06 348.128 198.983 347.935 198.83C347.742 198.677 347.632 198.473 347.605 198.22H348.15C348.17 198.337 348.228 198.432 348.325 198.505C348.425 198.578 348.557 198.615 348.72 198.615C348.877 198.615 348.997 198.583 349.08 198.52C349.167 198.453 349.21 198.377 349.21 198.29C349.21 198.163 349.158 198.077 349.055 198.03C348.955 197.983 348.807 197.948 348.61 197.925C348.44 197.905 348.285 197.867 348.145 197.81C348.008 197.75 347.9 197.67 347.82 197.57C347.74 197.467 347.7 197.338 347.7 197.185C347.7 196.968 347.785 196.793 347.955 196.66C348.125 196.527 348.362 196.46 348.665 196.46C348.968 196.46 349.203 196.528 349.37 196.665C349.537 196.802 349.633 196.988 349.66 197.225H349.15C349.137 197.125 349.085 197.047 348.995 196.99C348.905 196.93 348.793 196.9 348.66 196.9C348.523 196.9 348.415 196.927 348.335 196.98C348.255 197.03 348.215 197.097 348.215 197.18C348.215 197.36 348.408 197.47 348.795 197.51C348.978 197.53 349.142 197.565 349.285 197.615C349.428 197.662 349.542 197.737 349.625 197.84C349.708 197.94 349.75 198.082 349.75 198.265C349.753 198.415 349.71 198.55 349.62 198.67C349.533 198.79 349.412 198.885 349.255 198.955C349.102 199.025 348.922 199.06 348.715 199.06ZM351.873 199.06C351.573 199.06 351.345 198.968 351.188 198.785C351.035 198.598 350.958 198.328 350.958 197.975V196.52H351.488V197.91C351.488 198.113 351.531 198.273 351.618 198.39C351.708 198.503 351.845 198.56 352.028 198.56C352.211 198.56 352.365 198.498 352.488 198.375C352.611 198.252 352.673 198.073 352.673 197.84V196.52H353.203V199H352.743L352.698 198.63H352.673C352.606 198.75 352.503 198.852 352.363 198.935C352.223 199.018 352.06 199.06 351.873 199.06ZM355.526 199.06C355.296 199.06 355.09 199.007 354.906 198.9C354.726 198.793 354.585 198.643 354.481 198.45C354.378 198.253 354.326 198.023 354.326 197.76C354.326 197.497 354.378 197.268 354.481 197.075C354.588 196.882 354.731 196.732 354.911 196.625C355.091 196.515 355.296 196.46 355.526 196.46C355.843 196.46 356.098 196.54 356.291 196.7C356.488 196.857 356.613 197.073 356.666 197.35H356.111C356.078 197.23 356.01 197.135 355.906 197.065C355.806 196.995 355.678 196.96 355.521 196.96C355.408 196.96 355.3 196.99 355.196 197.05C355.096 197.11 355.015 197.2 354.951 197.32C354.891 197.437 354.861 197.583 354.861 197.76C354.861 197.933 354.891 198.08 354.951 198.2C355.015 198.32 355.096 198.412 355.196 198.475C355.3 198.535 355.408 198.565 355.521 198.565C355.681 198.565 355.81 198.53 355.906 198.46C356.003 198.39 356.071 198.293 356.111 198.17H356.666C356.6 198.443 356.47 198.66 356.276 198.82C356.083 198.98 355.833 199.06 355.526 199.06ZM358.924 199.06C358.694 199.06 358.488 199.007 358.304 198.9C358.124 198.793 357.983 198.643 357.879 198.45C357.776 198.253 357.724 198.023 357.724 197.76C357.724 197.497 357.776 197.268 357.879 197.075C357.986 196.882 358.129 196.732 358.309 196.625C358.489 196.515 358.694 196.46 358.924 196.46C359.241 196.46 359.496 196.54 359.689 196.7C359.886 196.857 360.011 197.073 360.064 197.35H359.509C359.476 197.23 359.408 197.135 359.304 197.065C359.204 196.995 359.076 196.96 358.919 196.96C358.806 196.96 358.698 196.99 358.594 197.05C358.494 197.11 358.413 197.2 358.349 197.32C358.289 197.437 358.259 197.583 358.259 197.76C358.259 197.933 358.289 198.08 358.349 198.2C358.413 198.32 358.494 198.412 358.594 198.475C358.698 198.535 358.806 198.565 358.919 198.565C359.079 198.565 359.208 198.53 359.304 198.46C359.401 198.39 359.469 198.293 359.509 198.17H360.064C359.998 198.443 359.868 198.66 359.674 198.82C359.481 198.98 359.231 199.06 358.924 199.06ZM362.317 199.06C362.077 199.06 361.866 199.007 361.682 198.9C361.499 198.79 361.356 198.638 361.252 198.445C361.149 198.252 361.097 198.027 361.097 197.77C361.097 197.51 361.147 197.282 361.247 197.085C361.351 196.888 361.494 196.735 361.677 196.625C361.864 196.515 362.079 196.46 362.322 196.46C362.562 196.46 362.769 196.515 362.942 196.625C363.116 196.732 363.249 196.875 363.342 197.055C363.439 197.235 363.487 197.433 363.487 197.65C363.487 197.683 363.487 197.72 363.487 197.76C363.487 197.797 363.486 197.838 363.482 197.885H361.617C361.634 198.115 361.709 198.29 361.842 198.41C361.976 198.527 362.132 198.585 362.312 198.585C362.469 198.585 362.592 198.553 362.682 198.49C362.776 198.423 362.844 198.333 362.887 198.22H363.422C363.362 198.457 363.237 198.657 363.047 198.82C362.857 198.98 362.614 199.06 362.317 199.06ZM362.317 196.92C362.154 196.92 362.009 196.97 361.882 197.07C361.756 197.167 361.674 197.303 361.637 197.48H362.957C362.944 197.313 362.879 197.178 362.762 197.075C362.646 196.972 362.497 196.92 362.317 196.92ZM365.705 199.06C365.379 199.06 365.119 198.983 364.925 198.83C364.732 198.677 364.622 198.473 364.595 198.22H365.14C365.16 198.337 365.219 198.432 365.315 198.505C365.415 198.578 365.547 198.615 365.71 198.615C365.867 198.615 365.987 198.583 366.07 198.52C366.157 198.453 366.2 198.377 366.2 198.29C366.2 198.163 366.149 198.077 366.045 198.03C365.945 197.983 365.797 197.948 365.6 197.925C365.43 197.905 365.275 197.867 365.135 197.81C364.999 197.75 364.89 197.67 364.81 197.57C364.73 197.467 364.69 197.338 364.69 197.185C364.69 196.968 364.775 196.793 364.945 196.66C365.115 196.527 365.352 196.46 365.655 196.46C365.959 196.46 366.194 196.528 366.36 196.665C366.527 196.802 366.624 196.988 366.65 197.225H366.14C366.127 197.125 366.075 197.047 365.985 196.99C365.895 196.93 365.784 196.9 365.65 196.9C365.514 196.9 365.405 196.927 365.325 196.98C365.245 197.03 365.205 197.097 365.205 197.18C365.205 197.36 365.399 197.47 365.785 197.51C365.969 197.53 366.132 197.565 366.275 197.615C366.419 197.662 366.532 197.737 366.615 197.84C366.699 197.94 366.74 198.082 366.74 198.265C366.744 198.415 366.7 198.55 366.61 198.67C366.524 198.79 366.402 198.885 366.245 198.955C366.092 199.025 365.912 199.06 365.705 199.06ZM369.103 199.06C368.777 199.06 368.517 198.983 368.323 198.83C368.13 198.677 368.02 198.473 367.993 198.22H368.538C368.558 198.337 368.617 198.432 368.713 198.505C368.813 198.578 368.945 198.615 369.108 198.615C369.265 198.615 369.385 198.583 369.468 198.52C369.555 198.453 369.598 198.377 369.598 198.29C369.598 198.163 369.547 198.077 369.443 198.03C369.343 197.983 369.195 197.948 368.998 197.925C368.828 197.905 368.673 197.867 368.533 197.81C368.397 197.75 368.288 197.67 368.208 197.57C368.128 197.467 368.088 197.338 368.088 197.185C368.088 196.968 368.173 196.793 368.343 196.66C368.513 196.527 368.75 196.46 369.053 196.46C369.357 196.46 369.592 196.528 369.758 196.665C369.925 196.802 370.022 196.988 370.048 197.225H369.538C369.525 197.125 369.473 197.047 369.383 196.99C369.293 196.93 369.182 196.9 369.048 196.9C368.912 196.9 368.803 196.927 368.723 196.98C368.643 197.03 368.603 197.097 368.603 197.18C368.603 197.36 368.797 197.47 369.183 197.51C369.367 197.53 369.53 197.565 369.673 197.615C369.817 197.662 369.93 197.737 370.013 197.84C370.097 197.94 370.138 198.082 370.138 198.265C370.142 198.415 370.098 198.55 370.008 198.67C369.922 198.79 369.8 198.885 369.643 198.955C369.49 199.025 369.31 199.06 369.103 199.06Z" fill="#00FF4C"/>
<g filter="url(#filter2_d_106_331)">
<path d="M306.702 65V64.54H307.307V63.145C307.307 63.035 307.253 62.98 307.147 62.98H306.752V62.52H307.347C307.483 62.52 307.595 62.56 307.682 62.64C307.768 62.7167 307.812 62.825 307.812 62.965V63.025H307.837C307.873 62.8383 307.952 62.6983 308.072 62.605C308.195 62.5083 308.373 62.46 308.607 62.46H308.992V63.02H308.452C308.255 63.02 308.103 63.0883 307.997 63.225C307.89 63.3617 307.837 63.525 307.837 63.715V64.54H308.607V65H306.702ZM310.06 66.1V62.52H310.52L310.56 62.9H310.59C310.656 62.7767 310.756 62.6733 310.89 62.59C311.026 62.5033 311.188 62.46 311.375 62.46C311.568 62.46 311.745 62.51 311.905 62.61C312.065 62.7067 312.191 62.8517 312.285 63.045C312.381 63.235 312.43 63.4733 312.43 63.76C312.43 64.0433 312.38 64.2817 312.28 64.475C312.183 64.6683 312.051 64.815 311.885 64.915C311.718 65.0117 311.531 65.06 311.325 65.06C311.141 65.06 310.988 65.0233 310.865 64.95C310.741 64.8767 310.65 64.7933 310.59 64.7V66.1H310.06ZM311.235 64.555C311.421 64.555 311.576 64.4883 311.7 64.355C311.826 64.2217 311.89 64.0217 311.89 63.755C311.89 63.4883 311.826 63.29 311.7 63.16C311.576 63.03 311.421 62.965 311.235 62.965C311.045 62.965 310.886 63.0317 310.76 63.165C310.636 63.295 310.575 63.4933 310.575 63.76C310.575 64.0233 310.636 64.2217 310.76 64.355C310.886 64.4883 311.045 64.555 311.235 64.555ZM314.648 65.06C314.418 65.06 314.211 65.0067 314.028 64.9C313.848 64.7933 313.706 64.6433 313.603 64.45C313.499 64.2533 313.448 64.0233 313.448 63.76C313.448 63.4967 313.499 63.2683 313.603 63.075C313.709 62.8817 313.853 62.7317 314.033 62.625C314.213 62.515 314.418 62.46 314.648 62.46C314.964 62.46 315.219 62.54 315.413 62.7C315.609 62.8567 315.734 63.0733 315.788 63.35H315.233C315.199 63.23 315.131 63.135 315.028 63.065C314.928 62.995 314.799 62.96 314.643 62.96C314.529 62.96 314.421 62.99 314.318 63.05C314.218 63.11 314.136 63.2 314.073 63.32C314.013 63.4367 313.983 63.5833 313.983 63.76C313.983 63.9333 314.013 64.08 314.073 64.2C314.136 64.32 314.218 64.4117 314.318 64.475C314.421 64.535 314.529 64.565 314.643 64.565C314.803 64.565 314.931 64.53 315.028 64.46C315.124 64.39 315.193 64.2933 315.233 64.17H315.788C315.721 64.4433 315.591 64.66 315.398 64.82C315.204 64.98 314.954 65.06 314.648 65.06ZM320.549 63.475V63.025H322.269V63.475H320.549ZM328.15 64.285C327.997 64.285 327.855 64.26 327.725 64.21L327.6 64.36C327.56 64.41 327.548 64.4583 327.565 64.505C327.585 64.5483 327.63 64.57 327.7 64.57H328.355C328.645 64.57 328.878 64.6317 329.055 64.755C329.235 64.875 329.325 65.06 329.325 65.31C329.325 65.4667 329.285 65.6083 329.205 65.735C329.128 65.865 329.003 65.9683 328.83 66.045C328.66 66.1217 328.435 66.16 328.155 66.16C327.802 66.16 327.517 66.0933 327.3 65.96C327.087 65.83 326.98 65.6333 326.98 65.37C326.98 65.2767 327.002 65.19 327.045 65.11C327.092 65.0333 327.152 64.9633 327.225 64.9C327.135 64.8333 327.08 64.74 327.06 64.62C327.043 64.4967 327.08 64.3783 327.17 64.265L327.39 63.985C327.233 63.8183 327.155 63.6133 327.155 63.37C327.155 63.2067 327.193 63.0567 327.27 62.92C327.35 62.78 327.463 62.6683 327.61 62.585C327.76 62.5017 327.94 62.46 328.15 62.46C328.287 62.46 328.413 62.48 328.53 62.52H329.465V62.87L329.03 62.895V62.94C329.1 63.07 329.135 63.2133 329.135 63.37C329.135 63.5333 329.095 63.685 329.015 63.825C328.938 63.965 328.827 64.0767 328.68 64.16C328.533 64.2433 328.357 64.285 328.15 64.285ZM328.15 63.86C328.297 63.86 328.417 63.8167 328.51 63.73C328.607 63.6433 328.655 63.5233 328.655 63.37C328.655 63.2233 328.607 63.1067 328.51 63.02C328.417 62.9333 328.297 62.89 328.15 62.89C328 62.89 327.877 62.9333 327.78 63.02C327.687 63.1067 327.64 63.2233 327.64 63.37C327.64 63.5233 327.687 63.6433 327.78 63.73C327.877 63.8167 328 63.86 328.15 63.86ZM327.48 65.33C327.48 65.4633 327.543 65.5617 327.67 65.625C327.8 65.6883 327.962 65.72 328.155 65.72C328.362 65.72 328.525 65.685 328.645 65.615C328.765 65.545 328.825 65.4467 328.825 65.32C328.825 65.2133 328.782 65.1283 328.695 65.065C328.608 65.005 328.462 64.975 328.255 64.975H327.67C327.543 65.075 327.48 65.1933 327.48 65.33ZM331.633 65.06C331.393 65.06 331.181 65.0067 330.998 64.9C330.815 64.79 330.671 64.6383 330.568 64.445C330.465 64.2517 330.413 64.0267 330.413 63.77C330.413 63.51 330.463 63.2817 330.563 63.085C330.666 62.8883 330.81 62.735 330.993 62.625C331.18 62.515 331.395 62.46 331.638 62.46C331.878 62.46 332.085 62.515 332.258 62.625C332.431 62.7317 332.565 62.875 332.658 63.055C332.755 63.235 332.803 63.4333 332.803 63.65C332.803 63.6833 332.803 63.72 332.803 63.76C332.803 63.7967 332.801 63.8383 332.798 63.885H330.933C330.95 64.115 331.025 64.29 331.158 64.41C331.291 64.5267 331.448 64.585 331.628 64.585C331.785 64.585 331.908 64.5533 331.998 64.49C332.091 64.4233 332.16 64.3333 332.203 64.22H332.738C332.678 64.4567 332.553 64.6567 332.363 64.82C332.173 64.98 331.93 65.06 331.633 65.06ZM331.633 62.92C331.47 62.92 331.325 62.97 331.198 63.07C331.071 63.1667 330.99 63.3033 330.953 63.48H332.273C332.26 63.3133 332.195 63.1783 332.078 63.075C331.961 62.9717 331.813 62.92 331.633 62.92ZM335.271 65C335.028 65 334.834 64.9417 334.691 64.825C334.548 64.705 334.476 64.4933 334.476 64.19V62.97H333.851V62.52H334.221C334.391 62.52 334.491 62.4367 334.521 62.27L334.596 61.87H335.006V62.52H335.986V62.97H335.006V64.18C335.006 64.31 335.034 64.4017 335.091 64.455C335.151 64.505 335.253 64.53 335.396 64.53H335.976V65H335.271ZM341.572 65.06C341.375 65.06 341.21 65.0267 341.077 64.96C340.944 64.89 340.844 64.7983 340.777 64.685C340.71 64.5683 340.677 64.4417 340.677 64.305C340.677 64.0617 340.765 63.8717 340.942 63.735C341.122 63.5983 341.375 63.53 341.702 63.53H342.342V63.475C342.342 63.1017 342.169 62.915 341.822 62.915C341.679 62.915 341.557 62.9467 341.457 63.01C341.36 63.07 341.295 63.1683 341.262 63.305H340.732C340.759 63.045 340.87 62.84 341.067 62.69C341.267 62.5367 341.519 62.46 341.822 62.46C342.189 62.46 342.455 62.55 342.622 62.73C342.789 62.91 342.872 63.1583 342.872 63.475V65H342.422L342.377 64.635H342.342C342.269 64.7517 342.177 64.8517 342.067 64.935C341.957 65.0183 341.792 65.06 341.572 65.06ZM341.672 64.615C341.889 64.615 342.05 64.55 342.157 64.42C342.267 64.2867 342.327 64.1183 342.337 63.915H341.757C341.567 63.915 341.432 63.9467 341.352 64.01C341.275 64.07 341.237 64.155 341.237 64.265C341.237 64.375 341.275 64.4617 341.352 64.525C341.432 64.585 341.539 64.615 341.672 64.615ZM345.23 65.06C345 65.06 344.793 65.0067 344.61 64.9C344.43 64.7933 344.288 64.6433 344.185 64.45C344.082 64.2533 344.03 64.0233 344.03 63.76C344.03 63.4967 344.082 63.2683 344.185 63.075C344.292 62.8817 344.435 62.7317 344.615 62.625C344.795 62.515 345 62.46 345.23 62.46C345.547 62.46 345.802 62.54 345.995 62.7C346.192 62.8567 346.317 63.0733 346.37 63.35H345.815C345.782 63.23 345.713 63.135 345.61 63.065C345.51 62.995 345.382 62.96 345.225 62.96C345.112 62.96 345.003 62.99 344.9 63.05C344.8 63.11 344.718 63.2 344.655 63.32C344.595 63.4367 344.565 63.5833 344.565 63.76C344.565 63.9333 344.595 64.08 344.655 64.2C344.718 64.32 344.8 64.4117 344.9 64.475C345.003 64.535 345.112 64.565 345.225 64.565C345.385 64.565 345.513 64.53 345.61 64.46C345.707 64.39 345.775 64.2933 345.815 64.17H346.37C346.303 64.4433 346.173 64.66 345.98 64.82C345.787 64.98 345.537 65.06 345.23 65.06ZM348.628 65.06C348.398 65.06 348.191 65.0067 348.008 64.9C347.828 64.7933 347.686 64.6433 347.583 64.45C347.48 64.2533 347.428 64.0233 347.428 63.76C347.428 63.4967 347.48 63.2683 347.583 63.075C347.69 62.8817 347.833 62.7317 348.013 62.625C348.193 62.515 348.398 62.46 348.628 62.46C348.945 62.46 349.2 62.54 349.393 62.7C349.59 62.8567 349.715 63.0733 349.768 63.35H349.213C349.18 63.23 349.111 63.135 349.008 63.065C348.908 62.995 348.78 62.96 348.623 62.96C348.51 62.96 348.401 62.99 348.298 63.05C348.198 63.11 348.116 63.2 348.053 63.32C347.993 63.4367 347.963 63.5833 347.963 63.76C347.963 63.9333 347.993 64.08 348.053 64.2C348.116 64.32 348.198 64.4117 348.298 64.475C348.401 64.535 348.51 64.565 348.623 64.565C348.783 64.565 348.911 64.53 349.008 64.46C349.105 64.39 349.173 64.2933 349.213 64.17H349.768C349.701 64.4433 349.571 64.66 349.378 64.82C349.185 64.98 348.935 65.06 348.628 65.06ZM351.991 65.06C351.755 65.06 351.543 65.0067 351.356 64.9C351.17 64.7933 351.023 64.6433 350.916 64.45C350.81 64.2533 350.756 64.0233 350.756 63.76C350.756 63.4967 350.81 63.2683 350.916 63.075C351.023 62.8783 351.17 62.7267 351.356 62.62C351.543 62.5133 351.756 62.46 351.996 62.46C352.236 62.46 352.448 62.5133 352.631 62.62C352.818 62.7267 352.963 62.8783 353.066 63.075C353.173 63.2683 353.226 63.4967 353.226 63.76C353.226 64.0233 353.173 64.2533 353.066 64.45C352.96 64.6433 352.813 64.7933 352.626 64.9C352.443 65.0067 352.231 65.06 351.991 65.06ZM351.991 64.555C352.118 64.555 352.235 64.5267 352.341 64.47C352.448 64.4133 352.533 64.3267 352.596 64.21C352.663 64.09 352.696 63.94 352.696 63.76C352.696 63.5767 352.663 63.4267 352.596 63.31C352.533 63.1933 352.448 63.1067 352.341 63.05C352.238 62.9933 352.123 62.965 351.996 62.965C351.87 62.965 351.753 62.9933 351.646 63.05C351.54 63.1067 351.453 63.1933 351.386 63.31C351.323 63.4267 351.291 63.5767 351.291 63.76C351.291 64.0333 351.36 64.235 351.496 64.365C351.636 64.4917 351.801 64.555 351.991 64.555ZM355.169 65.06C354.869 65.06 354.641 64.9683 354.484 64.785C354.331 64.5983 354.254 64.3283 354.254 63.975V62.52H354.784V63.91C354.784 64.1133 354.828 64.2733 354.914 64.39C355.004 64.5033 355.141 64.56 355.324 64.56C355.508 64.56 355.661 64.4983 355.784 64.375C355.908 64.2517 355.969 64.0733 355.969 63.84V62.52H356.499V65H356.039L355.994 64.63H355.969C355.903 64.75 355.799 64.8517 355.659 64.935C355.519 65.0183 355.356 65.06 355.169 65.06ZM357.677 65V62.52H358.137L358.182 62.89H358.207C358.274 62.77 358.377 62.6683 358.517 62.585C358.657 62.5017 358.819 62.46 359.002 62.46C359.306 62.46 359.534 62.5517 359.687 62.735C359.841 62.9183 359.917 63.1883 359.917 63.545V65H359.387V63.61C359.387 63.4033 359.344 63.2433 359.257 63.13C359.171 63.0167 359.034 62.96 358.847 62.96C358.664 62.96 358.511 63.0217 358.387 63.145C358.267 63.2683 358.207 63.4467 358.207 63.68V65H357.677ZM362.455 65C362.212 65 362.019 64.9417 361.875 64.825C361.732 64.705 361.66 64.4933 361.66 64.19V62.97H361.035V62.52H361.405C361.575 62.52 361.675 62.4367 361.705 62.27L361.78 61.87H362.19V62.52H363.17V62.97H362.19V64.18C362.19 64.31 362.219 64.4017 362.275 64.455C362.335 64.505 362.437 64.53 362.58 64.53H363.16V65H362.455Z" fill="#00FF4C"/>
</g>
<path d="M311.555 167.1V163.52H312.015L312.055 163.9H312.085C312.151 163.777 312.251 163.673 312.385 163.59C312.521 163.503 312.683 163.46 312.87 163.46C313.063 163.46 313.24 163.51 313.4 163.61C313.56 163.707 313.686 163.852 313.78 164.045C313.876 164.235 313.925 164.473 313.925 164.76C313.925 165.043 313.875 165.282 313.775 165.475C313.678 165.668 313.546 165.815 313.38 165.915C313.213 166.012 313.026 166.06 312.82 166.06C312.636 166.06 312.483 166.023 312.36 165.95C312.236 165.877 312.145 165.793 312.085 165.7V167.1H311.555ZM312.73 165.555C312.916 165.555 313.071 165.488 313.195 165.355C313.321 165.222 313.385 165.022 313.385 164.755C313.385 164.488 313.321 164.29 313.195 164.16C313.071 164.03 312.916 163.965 312.73 163.965C312.54 163.965 312.381 164.032 312.255 164.165C312.131 164.295 312.07 164.493 312.07 164.76C312.07 165.023 312.131 165.222 312.255 165.355C312.381 165.488 312.54 165.555 312.73 165.555ZM315.883 166.06C315.686 166.06 315.521 166.027 315.388 165.96C315.254 165.89 315.154 165.798 315.088 165.685C315.021 165.568 314.988 165.442 314.988 165.305C314.988 165.062 315.076 164.872 315.253 164.735C315.433 164.598 315.686 164.53 316.013 164.53H316.653V164.475C316.653 164.102 316.479 163.915 316.133 163.915C315.989 163.915 315.868 163.947 315.768 164.01C315.671 164.07 315.606 164.168 315.573 164.305H315.043C315.069 164.045 315.181 163.84 315.378 163.69C315.578 163.537 315.829 163.46 316.133 163.46C316.499 163.46 316.766 163.55 316.933 163.73C317.099 163.91 317.183 164.158 317.183 164.475V166H316.733L316.688 165.635H316.653C316.579 165.752 316.488 165.852 316.378 165.935C316.268 166.018 316.103 166.06 315.883 166.06ZM315.983 165.615C316.199 165.615 316.361 165.55 316.468 165.42C316.578 165.287 316.638 165.118 316.648 164.915H316.068C315.878 164.915 315.743 164.947 315.663 165.01C315.586 165.07 315.548 165.155 315.548 165.265C315.548 165.375 315.586 165.462 315.663 165.525C315.743 165.585 315.849 165.615 315.983 165.615ZM318.391 166V165.54H318.996V164.145C318.996 164.035 318.943 163.98 318.836 163.98H318.441V163.52H319.036C319.173 163.52 319.284 163.56 319.371 163.64C319.458 163.717 319.501 163.825 319.501 163.965V164.025H319.526C319.563 163.838 319.641 163.698 319.761 163.605C319.884 163.508 320.063 163.46 320.296 163.46H320.681V164.02H320.141C319.944 164.02 319.793 164.088 319.686 164.225C319.579 164.362 319.526 164.525 319.526 164.715V165.54H320.296V166H318.391ZM322.924 166.06C322.597 166.06 322.337 165.983 322.144 165.83C321.951 165.677 321.841 165.473 321.814 165.22H322.359C322.379 165.337 322.437 165.432 322.534 165.505C322.634 165.578 322.766 165.615 322.929 165.615C323.086 165.615 323.206 165.583 323.289 165.52C323.376 165.453 323.419 165.377 323.419 165.29C323.419 165.163 323.367 165.077 323.264 165.03C323.164 164.983 323.016 164.948 322.819 164.925C322.649 164.905 322.494 164.867 322.354 164.81C322.217 164.75 322.109 164.67 322.029 164.57C321.949 164.467 321.909 164.338 321.909 164.185C321.909 163.968 321.994 163.793 322.164 163.66C322.334 163.527 322.571 163.46 322.874 163.46C323.177 163.46 323.412 163.528 323.579 163.665C323.746 163.802 323.842 163.988 323.869 164.225H323.359C323.346 164.125 323.294 164.047 323.204 163.99C323.114 163.93 323.002 163.9 322.869 163.9C322.732 163.9 322.624 163.927 322.544 163.98C322.464 164.03 322.424 164.097 322.424 164.18C322.424 164.36 322.617 164.47 323.004 164.51C323.187 164.53 323.351 164.565 323.494 164.615C323.637 164.662 323.751 164.737 323.834 164.84C323.917 164.94 323.959 165.082 323.959 165.265C323.962 165.415 323.919 165.55 323.829 165.67C323.742 165.79 323.621 165.885 323.464 165.955C323.311 166.025 323.131 166.06 322.924 166.06ZM326.252 163.14C326.135 163.14 326.037 163.103 325.957 163.03C325.88 162.953 325.842 162.86 325.842 162.75C325.842 162.64 325.88 162.548 325.957 162.475C326.037 162.402 326.135 162.365 326.252 162.365C326.372 162.365 326.47 162.402 326.547 162.475C326.627 162.548 326.667 162.64 326.667 162.75C326.667 162.86 326.627 162.953 326.547 163.03C326.47 163.103 326.372 163.14 326.252 163.14ZM325.257 166V165.54H326.037V164.145C326.037 164.035 325.984 163.98 325.877 163.98H325.327V163.52H325.972C326.179 163.52 326.329 163.568 326.422 163.665C326.519 163.758 326.567 163.908 326.567 164.115V165.54H327.347V166H325.257ZM328.59 166V163.52H329.05L329.095 163.89H329.12C329.187 163.77 329.29 163.668 329.43 163.585C329.57 163.502 329.732 163.46 329.915 163.46C330.218 163.46 330.447 163.552 330.6 163.735C330.753 163.918 330.83 164.188 330.83 164.545V166H330.3V164.61C330.3 164.403 330.257 164.243 330.17 164.13C330.083 164.017 329.947 163.96 329.76 163.96C329.577 163.96 329.423 164.022 329.3 164.145C329.18 164.268 329.12 164.447 329.12 164.68V166H328.59ZM333.043 165.285C332.89 165.285 332.748 165.26 332.618 165.21L332.493 165.36C332.453 165.41 332.441 165.458 332.458 165.505C332.478 165.548 332.523 165.57 332.593 165.57H333.248C333.538 165.57 333.771 165.632 333.948 165.755C334.128 165.875 334.218 166.06 334.218 166.31C334.218 166.467 334.178 166.608 334.098 166.735C334.021 166.865 333.896 166.968 333.723 167.045C333.553 167.122 333.328 167.16 333.048 167.16C332.695 167.16 332.41 167.093 332.193 166.96C331.98 166.83 331.873 166.633 331.873 166.37C331.873 166.277 331.895 166.19 331.938 166.11C331.985 166.033 332.045 165.963 332.118 165.9C332.028 165.833 331.973 165.74 331.953 165.62C331.936 165.497 331.973 165.378 332.063 165.265L332.283 164.985C332.126 164.818 332.048 164.613 332.048 164.37C332.048 164.207 332.086 164.057 332.163 163.92C332.243 163.78 332.356 163.668 332.503 163.585C332.653 163.502 332.833 163.46 333.043 163.46C333.18 163.46 333.306 163.48 333.423 163.52H334.358V163.87L333.923 163.895V163.94C333.993 164.07 334.028 164.213 334.028 164.37C334.028 164.533 333.988 164.685 333.908 164.825C333.831 164.965 333.72 165.077 333.573 165.16C333.426 165.243 333.25 165.285 333.043 165.285ZM333.043 164.86C333.19 164.86 333.31 164.817 333.403 164.73C333.5 164.643 333.548 164.523 333.548 164.37C333.548 164.223 333.5 164.107 333.403 164.02C333.31 163.933 333.19 163.89 333.043 163.89C332.893 163.89 332.77 163.933 332.673 164.02C332.58 164.107 332.533 164.223 332.533 164.37C332.533 164.523 332.58 164.643 332.673 164.73C332.77 164.817 332.893 164.86 333.043 164.86ZM332.373 166.33C332.373 166.463 332.436 166.562 332.563 166.625C332.693 166.688 332.855 166.72 333.048 166.72C333.255 166.72 333.418 166.685 333.538 166.615C333.658 166.545 333.718 166.447 333.718 166.32C333.718 166.213 333.675 166.128 333.588 166.065C333.501 166.005 333.355 165.975 333.148 165.975H332.563C332.436 166.075 332.373 166.193 332.373 166.33ZM336.496 166.03C336.373 166.03 336.268 165.99 336.181 165.91C336.094 165.827 336.051 165.727 336.051 165.61C336.051 165.493 336.094 165.395 336.181 165.315C336.268 165.235 336.373 165.195 336.496 165.195C336.623 165.195 336.728 165.235 336.811 165.315C336.898 165.395 336.941 165.493 336.941 165.61C336.941 165.727 336.898 165.827 336.811 165.91C336.728 165.99 336.623 166.03 336.496 166.03ZM339.894 166.03C339.771 166.03 339.666 165.99 339.579 165.91C339.492 165.827 339.449 165.727 339.449 165.61C339.449 165.493 339.492 165.395 339.579 165.315C339.666 165.235 339.771 165.195 339.894 165.195C340.021 165.195 340.126 165.235 340.209 165.315C340.296 165.395 340.339 165.493 340.339 165.61C340.339 165.727 340.296 165.827 340.209 165.91C340.126 165.99 340.021 166.03 339.894 166.03ZM343.292 166.03C343.169 166.03 343.064 165.99 342.977 165.91C342.891 165.827 342.847 165.727 342.847 165.61C342.847 165.493 342.891 165.395 342.977 165.315C343.064 165.235 343.169 165.195 343.292 165.195C343.419 165.195 343.524 165.235 343.607 165.315C343.694 165.395 343.737 165.493 343.737 165.61C343.737 165.727 343.694 165.827 343.607 165.91C343.524 165.99 343.419 166.03 343.292 166.03Z" fill="white" fill-opacity="0.53"/>
<path d="M307.791 130C307.547 130 307.354 129.942 307.211 129.825C307.067 129.705 306.996 129.493 306.996 129.19V127.97H306.371V127.52H306.741C306.911 127.52 307.011 127.437 307.041 127.27L307.116 126.87H307.526V127.52H308.506V127.97H307.526V129.18C307.526 129.31 307.554 129.402 307.611 129.455C307.671 129.505 307.772 129.53 307.916 129.53H308.496V130H307.791ZM309.809 130V127.52H310.269L310.314 127.89H310.339C310.405 127.77 310.509 127.668 310.649 127.585C310.789 127.502 310.95 127.46 311.134 127.46C311.437 127.46 311.665 127.552 311.819 127.735C311.972 127.918 312.049 128.188 312.049 128.545V130H311.519V128.61C311.519 128.403 311.475 128.243 311.389 128.13C311.302 128.017 311.165 127.96 310.979 127.96C310.795 127.96 310.642 128.022 310.519 128.145C310.399 128.268 310.339 128.447 310.339 128.68V130H309.809ZM313.117 130L313.967 128.76L313.087 127.52H313.677L314.317 128.445L314.957 127.52H315.547L314.667 128.76L315.517 130H314.927L314.317 129.075L313.702 130H313.117ZM320.253 128.475V128.025H321.973V128.475H320.253ZM327.929 130.06C327.602 130.06 327.342 129.983 327.149 129.83C326.955 129.677 326.845 129.473 326.819 129.22H327.364C327.384 129.337 327.442 129.432 327.539 129.505C327.639 129.578 327.77 129.615 327.934 129.615C328.09 129.615 328.21 129.583 328.294 129.52C328.38 129.453 328.424 129.377 328.424 129.29C328.424 129.163 328.372 129.077 328.269 129.03C328.169 128.983 328.02 128.948 327.824 128.925C327.654 128.905 327.499 128.867 327.359 128.81C327.222 128.75 327.114 128.67 327.034 128.57C326.954 128.467 326.914 128.338 326.914 128.185C326.914 127.968 326.999 127.793 327.169 127.66C327.339 127.527 327.575 127.46 327.879 127.46C328.182 127.46 328.417 127.528 328.584 127.665C328.75 127.802 328.847 127.988 328.874 128.225H328.364C328.35 128.125 328.299 128.047 328.209 127.99C328.119 127.93 328.007 127.9 327.874 127.9C327.737 127.9 327.629 127.927 327.549 127.98C327.469 128.03 327.429 128.097 327.429 128.18C327.429 128.36 327.622 128.47 328.009 128.51C328.192 128.53 328.355 128.565 328.499 128.615C328.642 128.662 328.755 128.737 328.839 128.84C328.922 128.94 328.964 129.082 328.964 129.265C328.967 129.415 328.924 129.55 328.834 129.67C328.747 129.79 328.625 129.885 328.469 129.955C328.315 130.025 328.135 130.06 327.929 130.06ZM331.257 127.14C331.14 127.14 331.042 127.103 330.962 127.03C330.885 126.953 330.847 126.86 330.847 126.75C330.847 126.64 330.885 126.548 330.962 126.475C331.042 126.402 331.14 126.365 331.257 126.365C331.377 126.365 331.475 126.402 331.552 126.475C331.632 126.548 331.672 126.64 331.672 126.75C331.672 126.86 331.632 126.953 331.552 127.03C331.475 127.103 331.377 127.14 331.257 127.14ZM330.262 130V129.54H331.042V128.145C331.042 128.035 330.989 127.98 330.882 127.98H330.332V127.52H330.977C331.184 127.52 331.334 127.568 331.427 127.665C331.524 127.758 331.572 127.908 331.572 128.115V129.54H332.352V130H330.262ZM333.33 130V127.52H333.77L333.815 127.81H333.84C333.883 127.707 333.95 127.623 334.04 127.56C334.13 127.493 334.237 127.46 334.36 127.46C334.48 127.46 334.585 127.49 334.675 127.55C334.765 127.61 334.832 127.697 334.875 127.81H334.895C334.938 127.71 335.007 127.627 335.1 127.56C335.193 127.493 335.308 127.46 335.445 127.46C335.628 127.46 335.767 127.52 335.86 127.64C335.957 127.76 336.005 127.928 336.005 128.145V130H335.495V128.25C335.495 128.15 335.473 128.072 335.43 128.015C335.39 127.955 335.325 127.925 335.235 127.925C335.145 127.925 335.07 127.96 335.01 128.03C334.953 128.1 334.925 128.198 334.925 128.325V130H334.41V128.25C334.41 128.15 334.39 128.072 334.35 128.015C334.31 127.955 334.245 127.925 334.155 127.925C334.065 127.925 333.99 127.96 333.93 128.03C333.87 128.1 333.84 128.198 333.84 128.325V130H333.33ZM337.883 130.06C337.583 130.06 337.355 129.968 337.198 129.785C337.045 129.598 336.968 129.328 336.968 128.975V127.52H337.498V128.91C337.498 129.113 337.541 129.273 337.628 129.39C337.718 129.503 337.855 129.56 338.038 129.56C338.221 129.56 338.375 129.498 338.498 129.375C338.621 129.252 338.683 129.073 338.683 128.84V127.52H339.213V130H338.753L338.708 129.63H338.683C338.616 129.75 338.513 129.852 338.373 129.935C338.233 130.018 338.07 130.06 337.883 130.06ZM340.341 130V129.54H341.171V127.025C341.171 126.915 341.118 126.86 341.011 126.86H340.411V126.4H341.106C341.299 126.4 341.446 126.452 341.546 126.555C341.649 126.655 341.701 126.802 341.701 126.995V129.54H342.536V130H340.341ZM344.674 130.06C344.477 130.06 344.312 130.027 344.179 129.96C344.046 129.89 343.946 129.798 343.879 129.685C343.812 129.568 343.779 129.442 343.779 129.305C343.779 129.062 343.867 128.872 344.044 128.735C344.224 128.598 344.477 128.53 344.804 128.53H345.444V128.475C345.444 128.102 345.271 127.915 344.924 127.915C344.781 127.915 344.659 127.947 344.559 128.01C344.462 128.07 344.397 128.168 344.364 128.305H343.834C343.861 128.045 343.972 127.84 344.169 127.69C344.369 127.537 344.621 127.46 344.924 127.46C345.291 127.46 345.557 127.55 345.724 127.73C345.891 127.91 345.974 128.158 345.974 128.475V130H345.524L345.479 129.635H345.444C345.371 129.752 345.279 129.852 345.169 129.935C345.059 130.018 344.894 130.06 344.674 130.06ZM344.774 129.615C344.991 129.615 345.152 129.55 345.259 129.42C345.369 129.287 345.429 129.118 345.439 128.915H344.859C344.669 128.915 344.534 128.947 344.454 129.01C344.377 129.07 344.339 129.155 344.339 129.265C344.339 129.375 344.377 129.462 344.454 129.525C344.534 129.585 344.641 129.615 344.774 129.615ZM348.567 130C348.324 130 348.13 129.942 347.987 129.825C347.844 129.705 347.772 129.493 347.772 129.19V127.97H347.147V127.52H347.517C347.687 127.52 347.787 127.437 347.817 127.27L347.892 126.87H348.302V127.52H349.282V127.97H348.302V129.18C348.302 129.31 348.33 129.402 348.387 129.455C348.447 129.505 348.549 129.53 348.692 129.53H349.272V130H348.567ZM351.645 127.14C351.528 127.14 351.43 127.103 351.35 127.03C351.273 126.953 351.235 126.86 351.235 126.75C351.235 126.64 351.273 126.548 351.35 126.475C351.43 126.402 351.528 126.365 351.645 126.365C351.765 126.365 351.863 126.402 351.94 126.475C352.02 126.548 352.06 126.64 352.06 126.75C352.06 126.86 352.02 126.953 351.94 127.03C351.863 127.103 351.765 127.14 351.645 127.14ZM350.65 130V129.54H351.43V128.145C351.43 128.035 351.377 127.98 351.27 127.98H350.72V127.52H351.365C351.572 127.52 351.722 127.568 351.815 127.665C351.912 127.758 351.96 127.908 351.96 128.115V129.54H352.74V130H350.65ZM355.093 130.06C354.856 130.06 354.645 130.007 354.458 129.9C354.271 129.793 354.125 129.643 354.018 129.45C353.911 129.253 353.858 129.023 353.858 128.76C353.858 128.497 353.911 128.268 354.018 128.075C354.125 127.878 354.271 127.727 354.458 127.62C354.645 127.513 354.858 127.46 355.098 127.46C355.338 127.46 355.55 127.513 355.733 127.62C355.92 127.727 356.065 127.878 356.168 128.075C356.275 128.268 356.328 128.497 356.328 128.76C356.328 129.023 356.275 129.253 356.168 129.45C356.061 129.643 355.915 129.793 355.728 129.9C355.545 130.007 355.333 130.06 355.093 130.06ZM355.093 129.555C355.22 129.555 355.336 129.527 355.443 129.47C355.55 129.413 355.635 129.327 355.698 129.21C355.765 129.09 355.798 128.94 355.798 128.76C355.798 128.577 355.765 128.427 355.698 128.31C355.635 128.193 355.55 128.107 355.443 128.05C355.34 127.993 355.225 127.965 355.098 127.965C354.971 127.965 354.855 127.993 354.748 128.05C354.641 128.107 354.555 128.193 354.488 128.31C354.425 128.427 354.393 128.577 354.393 128.76C354.393 129.033 354.461 129.235 354.598 129.365C354.738 129.492 354.903 129.555 355.093 129.555ZM357.381 130V127.52H357.841L357.886 127.89H357.911C357.978 127.77 358.081 127.668 358.221 127.585C358.361 127.502 358.523 127.46 358.706 127.46C359.01 127.46 359.238 127.552 359.391 127.735C359.545 127.918 359.621 128.188 359.621 128.545V130H359.091V128.61C359.091 128.403 359.048 128.243 358.961 128.13C358.875 128.017 358.738 127.96 358.551 127.96C358.368 127.96 358.215 128.022 358.091 128.145C357.971 128.268 357.911 128.447 357.911 128.68V130H357.381ZM364.132 131.1V130.635H364.537C364.654 130.635 364.737 130.61 364.787 130.56C364.841 130.513 364.867 130.433 364.867 130.32V127.97H364.237V127.52H364.867V127.175C364.867 126.898 364.936 126.7 365.072 126.58C365.209 126.46 365.404 126.4 365.657 126.4H366.262V126.865H365.722C365.606 126.865 365.522 126.888 365.472 126.935C365.422 126.982 365.397 127.063 365.397 127.18V127.52H366.262V127.97H365.397V130.325C365.397 130.602 365.329 130.8 365.192 130.92C365.056 131.04 364.859 131.1 364.602 131.1H364.132ZM368.46 130.06C368.264 130.06 368.099 130.027 367.965 129.96C367.832 129.89 367.732 129.798 367.665 129.685C367.599 129.568 367.565 129.442 367.565 129.305C367.565 129.062 367.654 128.872 367.83 128.735C368.01 128.598 368.264 128.53 368.59 128.53H369.23V128.475C369.23 128.102 369.057 127.915 368.71 127.915C368.567 127.915 368.445 127.947 368.345 128.01C368.249 128.07 368.184 128.168 368.15 128.305H367.62C367.647 128.045 367.759 127.84 367.955 127.69C368.155 127.537 368.407 127.46 368.71 127.46C369.077 127.46 369.344 127.55 369.51 127.73C369.677 127.91 369.76 128.158 369.76 128.475V130H369.31L369.265 129.635H369.23C369.157 129.752 369.065 129.852 368.955 129.935C368.845 130.018 368.68 130.06 368.46 130.06ZM368.56 129.615C368.777 129.615 368.939 129.55 369.045 129.42C369.155 129.287 369.215 129.118 369.225 128.915H368.645C368.455 128.915 368.32 128.947 368.24 129.01C368.164 129.07 368.125 129.155 368.125 129.265C368.125 129.375 368.164 129.462 368.24 129.525C368.32 129.585 368.427 129.615 368.56 129.615ZM372.033 127.14C371.917 127.14 371.818 127.103 371.738 127.03C371.662 126.953 371.623 126.86 371.623 126.75C371.623 126.64 371.662 126.548 371.738 126.475C371.818 126.402 371.917 126.365 372.033 126.365C372.153 126.365 372.252 126.402 372.328 126.475C372.408 126.548 372.448 126.64 372.448 126.75C372.448 126.86 372.408 126.953 372.328 127.03C372.252 127.103 372.153 127.14 372.033 127.14ZM371.038 130V129.54H371.818V128.145C371.818 128.035 371.765 127.98 371.658 127.98H371.108V127.52H371.753C371.96 127.52 372.11 127.568 372.203 127.665C372.3 127.758 372.348 127.908 372.348 128.115V129.54H373.128V130H371.038ZM374.321 130V129.54H375.151V127.025C375.151 126.915 375.098 126.86 374.991 126.86H374.391V126.4H375.086C375.28 126.4 375.426 126.452 375.526 126.555C375.63 126.655 375.681 126.802 375.681 126.995V129.54H376.516V130H374.321Z" fill="#FF4A7D"/>
<path d="M290.708 60.2925C290.8 60.3854 290.874 60.4957 290.925 60.6171C290.975 60.7385 291.001 60.8686 291.001 61C291.001 61.1314 290.975 61.2615 290.925 61.3829C290.874 61.5043 290.8 61.6146 290.708 61.7075L283.708 68.7075C283.615 68.8005 283.504 68.8742 283.383 68.9246C283.262 68.9749 283.131 69.0008 283 69.0008C282.869 69.0008 282.738 68.9749 282.617 68.9246C282.496 68.8742 282.385 68.8005 282.293 68.7075L279.293 65.7075C279.105 65.5199 278.999 65.2654 278.999 65C278.999 64.7346 279.105 64.4801 279.293 64.2925C279.48 64.1049 279.735 63.9994 280 63.9994C280.265 63.9994 280.52 64.1049 280.708 64.2925L283 66.5863L289.293 60.2925C289.385 60.1995 289.496 60.1258 289.617 60.0754C289.738 60.0251 289.869 59.9992 290 59.9992C290.131 59.9992 290.262 60.0251 290.383 60.0754C290.504 60.1258 290.615 60.1995 290.708 60.2925ZM298 64C298 66.5712 297.238 69.0846 295.809 71.2224C294.381 73.3603 292.35 75.0265 289.975 76.0104C287.599 76.9944 284.986 77.2518 282.464 76.7502C279.942 76.2486 277.626 75.0105 275.808 73.1924C273.99 71.3743 272.751 69.0579 272.25 66.5362C271.748 64.0144 272.006 61.4006 272.99 59.0251C273.974 56.6497 275.64 54.6194 277.778 53.1909C279.915 51.7624 282.429 51 285 51C288.447 51.0036 291.751 52.3744 294.188 54.8116C296.626 57.2488 297.996 60.5533 298 64ZM296 64C296 61.8244 295.355 59.6977 294.146 57.8887C292.937 56.0798 291.22 54.6699 289.21 53.8373C287.2 53.0048 284.988 52.7869 282.854 53.2114C280.72 53.6358 278.76 54.6834 277.222 56.2218C275.683 57.7602 274.636 59.7202 274.211 61.854C273.787 63.9878 274.005 66.1995 274.837 68.2095C275.67 70.2195 277.08 71.9375 278.889 73.1462C280.698 74.3549 282.824 75 285 75C287.916 74.9967 290.712 73.8367 292.775 71.7745C294.837 69.7123 295.997 66.9164 296 64Z" fill="#4A3FFF"/>
<path d="M290.708 194.292C290.8 194.385 290.874 194.496 290.925 194.617C290.975 194.738 291.001 194.869 291.001 195C291.001 195.131 290.975 195.262 290.925 195.383C290.874 195.504 290.8 195.615 290.708 195.708L283.708 202.708C283.615 202.8 283.504 202.874 283.383 202.925C283.262 202.975 283.131 203.001 283 203.001C282.869 203.001 282.738 202.975 282.617 202.925C282.496 202.874 282.385 202.8 282.293 202.708L279.293 199.708C279.105 199.52 278.999 199.265 278.999 199C278.999 198.735 279.105 198.48 279.293 198.292C279.48 198.105 279.735 197.999 280 197.999C280.265 197.999 280.52 198.105 280.708 198.292L283 200.586L289.293 194.292C289.385 194.2 289.496 194.126 289.617 194.075C289.738 194.025 289.869 193.999 290 193.999C290.131 193.999 290.262 194.025 290.383 194.075C290.504 194.126 290.615 194.2 290.708 194.292ZM298 198C298 200.571 297.238 203.085 295.809 205.222C294.381 207.36 292.35 209.026 289.975 210.01C287.599 210.994 284.986 211.252 282.464 210.75C279.942 210.249 277.626 209.01 275.808 207.192C273.99 205.374 272.751 203.058 272.25 200.536C271.748 198.014 272.006 195.401 272.99 193.025C273.974 190.65 275.64 188.619 277.778 187.191C279.915 185.762 282.429 185 285 185C288.447 185.004 291.751 186.374 294.188 188.812C296.626 191.249 297.996 194.553 298 198ZM296 198C296 195.824 295.355 193.698 294.146 191.889C292.937 190.08 291.22 188.67 289.21 187.837C287.2 187.005 284.988 186.787 282.854 187.211C280.72 187.636 278.76 188.683 277.222 190.222C275.683 191.76 274.636 193.72 274.211 195.854C273.787 197.988 274.005 200.2 274.837 202.21C275.67 204.22 277.08 205.937 278.889 207.146C280.698 208.355 282.824 209 285 209C287.916 208.997 290.712 207.837 292.775 205.775C294.837 203.712 295.997 200.916 296 198Z" fill="#4A3FFF"/>
<path d="M285 116C282.429 116 279.915 116.762 277.778 118.191C275.64 119.619 273.974 121.65 272.99 124.025C272.006 126.401 271.748 129.014 272.25 131.536C272.751 134.058 273.99 136.374 275.808 138.192C277.626 140.01 279.942 141.249 282.464 141.75C284.986 142.252 287.599 141.994 289.975 141.01C292.35 140.026 294.381 138.36 295.809 136.222C297.238 134.085 298 131.571 298 129C297.996 125.553 296.626 122.249 294.188 119.812C291.751 117.374 288.447 116.004 285 116ZM285 140C282.824 140 280.698 139.355 278.889 138.146C277.08 136.937 275.67 135.22 274.837 133.21C274.005 131.2 273.787 128.988 274.211 126.854C274.636 124.72 275.683 122.76 277.222 121.222C278.76 119.683 280.72 118.636 282.854 118.211C284.988 117.787 287.2 118.005 289.21 118.837C291.22 119.67 292.937 121.08 294.146 122.889C295.355 124.698 296 126.824 296 129C295.997 131.916 294.837 134.712 292.775 136.775C290.712 138.837 287.916 139.997 285 140ZM284 130V123C284 122.735 284.105 122.48 284.293 122.293C284.48 122.105 284.735 122 285 122C285.265 122 285.52 122.105 285.707 122.293C285.895 122.48 286 122.735 286 123V130C286 130.265 285.895 130.52 285.707 130.707C285.52 130.895 285.265 131 285 131C284.735 131 284.48 130.895 284.293 130.707C284.105 130.52 284 130.265 284 130ZM286.5 134.5C286.5 134.797 286.412 135.087 286.247 135.333C286.082 135.58 285.848 135.772 285.574 135.886C285.3 135.999 284.998 136.029 284.707 135.971C284.416 135.913 284.149 135.77 283.939 135.561C283.73 135.351 283.587 135.084 283.529 134.793C283.471 134.502 283.501 134.2 283.614 133.926C283.728 133.652 283.92 133.418 284.167 133.253C284.413 133.088 284.703 133 285 133C285.398 133 285.779 133.158 286.061 133.439C286.342 133.721 286.5 134.102 286.5 134.5Z" fill="#FF5571"/>
<line x1="285.5" y1="83" x2="285.5" y2="109" stroke="white" stroke-opacity="0.29"/>
<line x1="285.5" y1="152" x2="285.5" y2="178" stroke="white" stroke-opacity="0.29"/>
<defs>
<filter id="filter0_f_106_331" x="-256.577" y="-261.75" width="720.576" height="826.617" filterUnits="userSpaceOnUse" color-interpolation-filters="sRGB">
<feFlood flood-opacity="0" result="BackgroundImageFix"/>
<feBlend mode="normal" in="SourceGraphic" in2="BackgroundImageFix" result="shape"/>
<feGaussianBlur stdDeviation="39.0422" result="effect1_foregroundBlur_106_331"/>
</filter>
<clipPath id="bgblur_1_106_331_clip_path" transform="translate(30.3771 38.8224)"><path d="M52.543 84.2754C52.5374 81.4496 53.277 78.6723 54.6875 76.2236C56.0974 73.776 58.1274 71.7429 60.5732 70.3301L102.796 46.2129C105.223 44.8265 107.97 44.0977 110.766 44.0977C113.561 44.0977 116.308 44.8265 118.735 46.2129L118.736 46.2139L161.093 70.3301C163.538 71.7429 165.569 73.7761 166.979 76.2236C168.389 78.6722 169.129 81.4496 169.123 84.2754V107.719C169.128 124.089 163.221 139.91 152.49 152.272C141.785 164.605 126.996 172.666 110.833 174.984C94.6742 172.664 79.8891 164.604 69.1846 152.275C58.4546 139.917 52.5455 124.101 52.543 107.735V84.2754Z"/>
</clipPath><filter id="filter2_d_106_331" x="302.702" y="61.8701" width="64.4688" height="12.29" filterUnits="userSpaceOnUse" color-interpolation-filters="sRGB">
<feFlood flood-opacity="0" result="BackgroundImageFix"/>
<feColorMatrix in="SourceAlpha" type="matrix" values="0 0 0 0 0 0 0 0 0 0 0 0 0 0 0 0 0 0 127 0" result="hardAlpha"/>
<feOffset dy="4"/>
<feGaussianBlur stdDeviation="2"/>
<feComposite in2="hardAlpha" operator="out"/>
<feColorMatrix type="matrix" values="0 0 0 0 0 0 0 0 0 0 0 0 0 0 0 0 0 0 0.25 0"/>
<feBlend mode="normal" in2="BackgroundImageFix" result="effect1_dropShadow_106_331"/>
<feBlend mode="normal" in="SourceGraphic" in2="effect1_dropShadow_106_331" result="shape"/>
</filter>
<radialGradient id="paint0_radial_106_331" cx="0" cy="0" r="1" gradientTransform="matrix(-281.774 -160.013 159.747 -281.935 236.379 135.09)" gradientUnits="userSpaceOnUse">
<stop offset="0.409332" stop-color="#4A3FFF"/>
<stop offset="1" stop-opacity="0"/>
<stop offset="1" stop-color="#2D2E32" stop-opacity="0"/>
</radialGradient>
<linearGradient id="paint1_linear_106_331" x1="166.088" y1="-7.4519" x2="203.806" y2="99.1207" gradientUnits="userSpaceOnUse">
<stop stop-color="#6042FF"/>
<stop offset="1" stop-color="white" stop-opacity="0"/>
</linearGradient>
<linearGradient id="paint2_linear_106_331" x1="77.6399" y1="-10.0071" x2="21.6846" y2="133.912" gradientUnits="userSpaceOnUse">
<stop stop-color="#6042FF"/>
<stop offset="1" stop-color="white" stop-opacity="0"/>
</linearGradient>
<linearGradient id="paint3_linear_106_331" x1="110.833" y1="43.2764" x2="110.833" y2="141.795" gradientUnits="userSpaceOnUse">
<stop stop-color="#4A3FFF"/>
<stop offset="1" stop-color="#6042FF" stop-opacity="0"/>
</linearGradient>
<linearGradient id="paint4_linear_106_331" x1="79.3068" y1="31.5732" x2="79.3068" y2="95.0399" gradientUnits="userSpaceOnUse">
<stop stop-color="#4A3FFF"/>
<stop offset="1" stop-color="#6042FF" stop-opacity="0"/>
</linearGradient>
<linearGradient id="paint5_linear_106_331" x1="151.899" y1="142.038" x2="151.899" y2="153.588" gradientUnits="userSpaceOnUse">
<stop stop-color="#4A3FFF"/>
<stop offset="1" stop-color="#6042FF" stop-opacity="0"/>
</linearGradient>
<linearGradient id="paint6_linear_106_331" x1="110.833" y1="43.2764" x2="110.833" y2="141.795" gradientUnits="userSpaceOnUse">
<stop stop-color="#4A3FFF"/>
<stop offset="1" stop-color="#6042FF" stop-opacity="0"/>
</linearGradient>
<linearGradient id="paint7_linear_106_331" x1="110.832" y1="61.3623" x2="110.832" y2="132.288" gradientUnits="userSpaceOnUse">
<stop stop-color="#4A3FFF"/>
<stop offset="1" stop-color="#6042FF" stop-opacity="0"/>
</linearGradient>
<linearGradient id="paint8_linear_106_331" x1="110.5" y1="89.417" x2="110.5" y2="123.584" gradientUnits="userSpaceOnUse">
<stop stop-color="white"/>
<stop offset="1" stop-color="#999999"/>
</linearGradient>
<linearGradient id="paint9_linear_106_331" x1="283.944" y1="394.387" x2="74.9444" y2="394.387" gradientUnits="userSpaceOnUse">
<stop stop-color="#4A3FFF"/>
<stop offset="1" stop-color="#6041FF" stop-opacity="0"/>
</linearGradient>
<clipPath id="clip0_106_331">
<rect y="283.944" width="283.944" height="221.667" rx="16.8889" transform="rotate(-90 0 283.944)" fill="white"/>
</clipPath>
</defs>
</svg>
